<svg xmlns="http://www.w3.org/2000/svg" viewBox="0 0 520.65 745.8"><defs><style>.cls-1{fill:#aba9a9;}.cls-2{fill:#fbc600;}.cls-3{fill:none;stroke:#fff;stroke-miterlimit:10;stroke-width:15px;}</style></defs><title>Asset 1</title><g id="Layer_2" data-name="Layer 2"><g id="Layer_2-2" data-name="Layer 2"><rect class="cls-1" x="156.51" y="604.8" width="232" height="32" rx="16"/><rect class="cls-1" x="156.51" y="653.3" width="232" height="32" rx="16"/><path class="cls-1" d="M272.51,704.3h88c0,22.76-39.73,41.5-88,41.5s-88-18.73-88-41.49Z"/><path class="cls-2" d="M220.63,325.92l-23.55-18.3a5.94,5.94,0,0,0-7.28,0L172.53,320.8a251.52,251.52,0,0,1,33.37,53.5c19,41.21,22.16,78.08,25.9,126a694,694,0,0,1,1.67,77.63l25.22-.13V301.48L228,325.88A6,6,0,0,1,220.63,325.92Z"/><path class="cls-2" d="M258,66.8c-.32-15.58-1-18.34-2-21-3.11-8-8.74-12.31-20-21a121.13,121.13,0,0,0-24-15C210.39,9,194.52,1.72,178.69.3a60.63,60.63,0,0,0-12,0,59.32,59.32,0,0,0-10.5,2C135,11.24,72,41,31.69,112.76c0,0-50.5,90-24,194.52,8.45,33.32,24.17,61.36,25,62.82,8.06,14.18,19.09,33.92,39,51.67,7.68,6.85,21.38,17.59,23.85,19.53,9.6,7.5,15.9,12.43,25,19,11.18,8.06,15.38,10.49,22,17a88,88,0,0,1,12,14c9.69,14.6,10.35,29.83,11,45a155,155,0,0,1-4,42l51-.27a415.94,415.94,0,0,0-4.61-123.73c-6.42-33.68-13-66.41-36.85-101a207.7,207.7,0,0,0-51.8-52c-3.16-4-3.47-9.35-1-13,3.16-4.66,10.48-6,15.94-2l25.9,22,29.33-23.2a6,6,0,0,1,7.2-.15l24.95,18.11a6,6,0,0,0,7.33-.25l29.8-25q-.33-93-.65-186C258.16,85.9,258.25,77.28,258,66.8Z"/><path class="cls-3" d="M386.29,463.16a10.46,10.46,0,0,0-1.45-.87c-16.21-7.65-22.47-21.94-26.66-37.64-.36-1.33-.25-2.48,1.28-2.87a2.08,2.08,0,0,1,2.74,1.72c.29,1.17.47,2.37.8,3.52,3,10.59,7.61,20.16,16.49,27.55s18.61,8.33,29,4.19a89.92,89.92,0,0,0,15.55-7.62c9.24-5.93,14.58-14,17.24-24.32,2.82-10.91-5-18.54-8.48-27.42-1.19-3-5.09-5.1-7.92-7.41-9.57-7.86-20.7-13.67-30.23-21.61-8.66-7.24-14.87-15.93-17.43-26.9-.38-1.62-.87-3.23,1.22-3.79,1.48-.41,2.12.84,2.4,2.12,3.9,17.94,18.17,27.69,33,37.3A135.2,135.2,0,0,1,438,399.72c3.52,3.71,7.13,2.61,11.47,2.08a23.88,23.88,0,0,0,2.37-.39c8.33-1.86,16.48-4.09,23.41-9.31,10-7.56,8.57-19.41-2.92-24.26a60.29,60.29,0,0,1-11.64-6c-17.3-12.29-26.52-29.86-31.87-49.11-2.55-9.17-8.81-12.57-15.95-16.12a53.52,53.52,0,0,0-9.49-3.21c-14.78-4.05-28.62-1.71-41.57,6.12-9.65,5.84-17,13.87-22.68,23.33-1,1.61-2.33,3.1-4.17,1.88s-.35-2.88.51-4.06c3-4,5.84-8.19,9.19-11.92,11.82-13.18,26.41-20.87,44.81-20.81,12.65,0,24.19,3.64,35.34,10.63-1.22-8.35-2.79-15.94-2.59-23.67.05-1.64-.51-3.84,2.24-3.72,2.17.1,2.07,1.93,2,3.53-.26,14.43,2.82,28.36,7.56,41.89,5,14.4,12.17,27.76,24,38.23,9.08,8,19.18,12.66,31.88,9.6,6.5-1.57,11.61-4.52,14.7-10.56,5.31-10.4,5.21-21.29,2.87-32.19-1.9-8.8-5.86-16.52-15.51-20-2.85-1-2-2.76-.78-4.19a70.23,70.23,0,0,1,6.85-6.95c10.74-9.6,17.5-20.55,14.32-35-2.36-10.7-6.21-20.67-13.72-29.12-10.07-11.34-21-17.11-37.54-12.35-20.79,6-41.33,4-59.33-9.56-7.12-5.35-11.79-12.2-13.21-20.93-.29-1.8-.76-4.35,1.87-4.6s2.05,2.24,2.08,3.85a17.93,17.93,0,0,0,3.67,10c6.33,9.11,15.45,14.31,25.92,17.62,12.53,4,24.95,2.22,37.66.3,9.78-1.48,15.59-6.58,19.66-14.4,11.84-22.72,11.71-45.77-.12-68.23-5.47-10.38-10.7-14.43-24.09-11.28-3.25.76-6.55,1.43-9.86,1.9-3.06.43-6,.15-7.59-3.35-5.83,6.28-11.72,11.83-19.37,15.49-15.48,7.38-31.78,7-48.25,5.45-1.63-.15-4.16.26-4-2.24.23-2.9,2.8-2,4.58-1.69A96.33,96.33,0,0,0,407,131c18.48-4.17,31.77-18.68,33.43-36.87.12-1.37.34-2.73.44-4.1,2.57-34.3-9.62-64.35-47.2-75.74C371.56,7.57,349.12,5.79,327.08,16,316.4,20.93,307.3,27.8,298.65,35.41a24.31,24.31,0,0,0-7.71,13.14,34,34,0,0,0-.75,10c.12,2,0,4.15,0,6.21q.19,64.73.34,129.45c0,1.33.16,2.65.24,3.94,17.58-1.91,34.1.44,49.31,9.08,18.59,10.55,28.42,26.65,30.79,47.24.24,2.08,2.09,5.62-1.41,5.92-2.92.26-1.9-3.48-2.22-5.46-2-12.05-5.85-23.29-14.42-32.58-14.08-15.24-32.31-20.77-52.66-21.13-9.53-.18-9.51,0-9.47,8.93q.42,114.23.81,228.45.18,63.69.06,127.37c0,3.83,1,4.85,4.95,4.81,24.63-.21,45.3-.08,69.49-.1,1.66,0,3.31-.15,4.7-.22C363,532.7,368.32,497.26,386.29,463.16Z"/></g></g></svg>